# xmcd
# 
# Track frame offsets:
#     150
#     18590
#     38920
#     51525
#     74760
#     100237
#     125885
#     140602
#     163002
# 
# Disc length: 2681
# 
# Revision: 11
# Processed by: cddbd v1.5.2PL0 Copyright (c) Steve Scherf et al.
# Submitted via: fre:ac v1.0.31
# 
DISCID=8e0a7709
DTITLE=JEFF BECK - Blow By Blow
DYEAR=1975
DGENRE=Fusion
TTITLE0=You Know What I Mean
TTITLE1=She's A Woman
TTITLE2=Constipated Duck
TTITLE3=Air Blower
TTITLE4=Scatterbrain
TTITLE5=Cause We've Ended As Lovers
TTITLE6=Thelonius
TTITLE7=Freeway Jam
TTITLE8=Diamond Dust
EXTD=YEAR: 1975
EXTT0=
EXTT1=
EXTT2=
EXTT3=
EXTT4=
EXTT5=
EXTT6=
EXTT7=
EXTT8=
PLAYORDER=
